<svg version="1.1" xmlns="http://www.w3.org/2000/svg" viewBox="0 0 10020 581.390625" width="20040" height="1162.78125">
  <!-- svg-source:excalidraw -->
  
  <defs>
    <style>
      @font-face {
        font-family: "Virgil";
        src: url("https://excalidraw.com/Virgil.woff2");
      }
      @font-face {
        font-family: "Cascadia";
        src: url("https://excalidraw.com/Cascadia.woff2");
      }
    </style>
  </defs>
  <rect x="0" y="0" width="10020" height="581.390625" fill="#fff0"></rect><g stroke-linecap="round" transform="translate(10 10) rotate(0 5000 0.5)"><path d="M-0.52 -0.26 C3022.65 -30.2, 6044.59 -29.2, 9999.32 0.22 M0.38 -0.31 C3948.03 -0.44, 7895.41 0.2, 9999.95 0.08 M10000.08 -0.06 C10000.09 0.27, 10000.05 0.48, 10000.09 0.92 M9999.97 0.01 C9999.95 0.33, 9999.98 0.72, 10000 0.99 M10000.22 1.51 C7095.77 35.76, 4193.15 34.95, -0.25 0.75 M10000.01 1.13 C7827.97 2.74, 5656.23 3.35, -0.33 0.84 M-0.04 1.01 C0 0.63, -0.06 0.15, 0.05 -0.03 M-0.04 0.95 C-0.04 0.73, -0.03 0.59, -0.05 -0.02" stroke="transparent" stroke-width="1" fill="none"></path></g><g transform="translate(645 539.390625) rotate(0 -6 12)" stroke="none"><path fill="#000000" d="M -1.61,0 Q -1.61,0 -1.95,-1.53 -2.29,-3.07 -3.84,-3.79 -5.39,-4.51 -6.47,-4.31 -7.55,-4.11 -8.82,-3.82 -10.10,-3.52 -11.30,-2.43 -12.49,-1.34 -12.59,0.46 -12.70,2.27 -12.57,3.55 -12.44,4.83 -11.26,4.37 -10.07,3.90 -8.37,2.42 -6.66,0.94 -5.64,-0.78 -4.61,-2.51 -4.56,-2.61 -4.50,-2.71 -4.23,-3.05 -3.96,-3.40 -3.61,-3.67 -3.26,-3.94 -2.86,-4.12 -2.45,-4.30 -2.02,-4.38 -1.58,-4.46 -1.14,-4.43 -0.70,-4.41 -0.28,-4.27 0.13,-4.14 0.51,-3.91 0.89,-3.68 1.20,-3.37 1.51,-3.06 1.74,-2.68 1.97,-2.30 2.10,-1.88 2.23,-1.45 2.25,-1.01 2.28,-0.57 2.20,-0.14 2.12,0.29 1.93,0.69 1.75,1.09 2.29,0.15 2.84,-0.78 3.23,1.28 3.63,3.35 3.74,5.87 3.84,8.39 3.89,11.15 3.93,13.92 3.95,16.82 3.97,19.71 3.94,22.38 3.91,25.04 4.10,26.75 4.29,28.45 3.49,28.90 2.70,29.35 2.89,29.25 3.07,29.14 3.28,29.10 3.49,29.06 3.70,29.09 3.91,29.12 4.10,29.21 4.29,29.31 4.44,29.46 4.59,29.61 4.68,29.80 4.78,29.99 4.81,30.20 4.84,30.41 4.80,30.62 4.76,30.83 4.65,31.01 4.55,31.20 4.39,31.34 4.23,31.48 4.04,31.56 3.84,31.65 3.63,31.67 3.42,31.68 3.21,31.63 3.01,31.58 2.83,31.47 2.65,31.35 2.51,31.19 2.38,31.02 2.31,30.82 2.23,30.62 2.23,30.41 2.22,30.20 2.28,29.99 2.35,29.79 2.47,29.62 2.59,29.45 2.77,29.32 2.94,29.20 3.14,29.14 3.35,29.07 3.56,29.08 3.77,29.08 3.97,29.16 4.17,29.23 4.34,29.36 4.50,29.50 4.62,29.68 4.73,29.85 4.78,30.06 4.83,30.27 4.82,30.48 4.80,30.69 4.72,30.89 4.63,31.08 4.49,31.24 4.35,31.40 4.35,31.40 4.35,31.40 0.60,30.52 -3.14,29.64 -3.54,27.36 -3.93,25.07 -3.97,22.41 -4.01,19.75 -4.02,16.88 -4.02,14.01 -4.04,11.32 -4.05,8.63 -4.03,5.51 -4.01,2.40 -4.25,-0.15 -4.50,-2.70 -4.23,-3.05 -3.96,-3.40 -3.61,-3.67 -3.26,-3.94 -2.86,-4.12 -2.45,-4.30 -2.02,-4.38 -1.58,-4.46 -1.14,-4.43 -0.70,-4.41 -0.28,-4.27 0.13,-4.14 0.51,-3.91 0.89,-3.68 1.20,-3.37 1.51,-3.06 1.74,-2.68 1.97,-2.30 2.10,-1.88 2.23,-1.45 2.25,-1.01 2.28,-0.57 2.20,-0.14 2.12,0.29 1.93,0.69 1.75,1.09 1.30,1.26 0.84,1.42 0.20,2.42 -0.43,3.42 -1.42,4.59 -2.41,5.75 -3.59,6.74 -4.77,7.73 -6.18,8.69 -7.59,9.65 -9.54,10.27 -11.48,10.89 -12.80,10.73 -14.13,10.56 -15.51,9.80 -16.89,9.04 -17.60,7.94 -18.32,6.84 -18.65,5.52 -18.98,4.19 -18.92,2.90 -18.86,1.62 -18.64,-0.00 -18.42,-1.64 -17.75,-3.43 -17.09,-5.22 -15.88,-6.43 -14.66,-7.63 -12.95,-8.46 -11.24,-9.29 -9.37,-9.56 -7.50,-9.82 -5.23,-9.58 -2.97,-9.35 -1.37,-8.27 0.22,-7.20 1.25,-5.51 2.29,-3.82 1.95,-1.91 1.61,0 1.59,0.19 1.56,0.38 1.49,0.56 1.42,0.75 1.31,0.91 1.20,1.07 1.06,1.19 0.91,1.32 0.74,1.41 0.57,1.50 0.38,1.55 0.19,1.60 -0.00,1.60 -0.19,1.60 -0.38,1.55 -0.57,1.50 -0.74,1.41 -0.91,1.32 -1.06,1.19 -1.20,1.07 -1.31,0.91 -1.42,0.74 -1.49,0.56 -1.56,0.38 -1.59,0.19 -1.61,-0.00 -1.61,-0.00 L -1.61,0 Z"></path></g><g transform="translate(653 561.390625) rotate(0 -8.5 -0.5)" stroke="none"><path fill="#000000" d="M 0,1.61 Q 0,1.61 -1.72,2.32 -3.44,3.02 -5.33,3.18 -7.21,3.34 -9.45,3.34 -11.69,3.34 -14.13,1.98 -16.57,0.62 -16.75,0.50 -16.92,0.39 -17.06,0.22 -17.19,0.05 -17.26,-0.14 -17.33,-0.34 -17.33,-0.55 -17.34,-0.76 -17.27,-0.96 -17.21,-1.17 -17.08,-1.34 -16.95,-1.51 -16.78,-1.63 -16.61,-1.75 -16.40,-1.81 -16.20,-1.87 -15.99,-1.87 -15.77,-1.86 -15.58,-1.78 -15.38,-1.71 -15.21,-1.57 -15.05,-1.44 -14.94,-1.26 -14.82,-1.08 -14.78,-0.87 -14.73,-0.66 -14.75,-0.45 -14.77,-0.24 -14.85,-0.04 -14.94,0.14 -15.08,0.30 -15.22,0.45 -15.41,0.56 -15.60,0.66 -15.81,0.70 -16.02,0.73 -16.23,0.70 -16.44,0.67 -16.63,0.57 -16.81,0.48 -16.96,0.33 -17.11,0.17 -17.20,-0.01 -17.30,-0.20 -17.32,-0.41 -17.35,-0.62 -17.31,-0.83 -17.26,-1.04 -17.16,-1.22 -17.05,-1.40 -16.89,-1.54 -16.73,-1.68 -16.53,-1.77 -16.34,-1.85 -16.13,-1.86 -15.91,-1.88 -15.71,-1.82 -15.50,-1.77 -15.50,-1.77 -15.50,-1.77 -13.60,-2.56 -11.69,-3.34 -9.45,-3.34 -7.21,-3.34 -5.33,-3.18 -3.44,-3.02 -1.72,-2.32 0,-1.61 0.19,-1.59 0.38,-1.56 0.56,-1.49 0.75,-1.42 0.91,-1.31 1.07,-1.20 1.19,-1.06 1.32,-0.91 1.41,-0.74 1.50,-0.57 1.55,-0.38 1.60,-0.19 1.60,0.00 1.60,0.19 1.55,0.38 1.50,0.57 1.41,0.74 1.32,0.91 1.19,1.06 1.07,1.20 0.91,1.31 0.74,1.42 0.56,1.49 0.38,1.56 0.19,1.59 -0.00,1.61 -0.00,1.61 L 0,1.61 Z"></path></g><g transform="translate(653 538.390625) rotate(0 18.5 3)" stroke="none"><path fill="#000000" d="M -1.58,-0.31 Q -1.58,-0.31 -1.25,-2.34 -0.91,-4.36 -1.38,-3.92 -1.84,-3.48 -1.74,-3.79 -1.64,-4.10 -1.46,-4.38 -1.29,-4.65 -1.05,-4.88 -0.82,-5.11 -0.54,-5.28 -0.25,-5.44 0.05,-5.53 0.37,-5.63 0.69,-5.64 1.02,-5.65 1.34,-5.59 1.67,-5.53 1.96,-5.39 2.26,-5.25 2.51,-5.04 2.77,-4.83 2.97,-4.57 3.16,-4.31 3.29,-4.01 3.42,-3.71 3.48,-3.39 3.53,-3.06 3.51,-2.74 3.48,-2.41 3.87,-0.60 4.26,1.21 4.64,3.25 5.03,5.29 5.69,6.13 6.34,6.98 7.07,5.28 7.80,3.59 7.92,2.28 8.04,0.97 8.18,-0.21 8.31,-1.40 9.02,-2.22 9.72,-3.04 9.77,-3.31 9.82,-3.57 9.93,-3.82 10.05,-4.06 10.22,-4.27 10.39,-4.49 10.60,-4.65 10.81,-4.82 11.06,-4.92 11.31,-5.03 11.58,-5.08 11.84,-5.13 12.11,-5.11 12.38,-5.09 12.64,-5.01 12.90,-4.92 13.13,-4.78 13.36,-4.64 13.55,-4.45 13.74,-4.25 13.87,-4.02 14.01,-3.79 14.09,-3.53 14.17,-3.27 14.18,-3.00 14.20,-2.73 16.02,-2.66 17.85,-2.59 19.89,-2.82 21.92,-3.05 23.27,-3.85 24.62,-4.65 25.77,-5.25 26.92,-5.85 27.37,-6.77 27.82,-7.68 28.12,-7.90 28.41,-8.11 28.74,-8.25 29.08,-8.39 29.44,-8.45 29.79,-8.50 30.16,-8.47 30.52,-8.44 30.86,-8.32 31.20,-8.20 31.51,-8.00 31.81,-7.81 32.06,-7.54 32.31,-7.28 32.49,-6.96 32.67,-6.65 32.76,-6.30 32.86,-5.95 32.87,-5.59 32.88,-5.22 32.81,-4.87 32.73,-4.51 32.57,-4.19 32.42,-3.86 32.18,-3.58 31.95,-3.30 29.61,-3.06 27.27,-2.81 26.14,-2.93 25.01,-3.05 23.97,-1.81 22.94,-0.57 23.32,1.46 23.70,3.50 24.73,4.84 25.76,6.18 26.93,6.85 28.10,7.53 29.27,7.54 30.44,7.56 31.55,7.20 32.67,6.84 33.77,6.93 34.87,7.01 34.86,6.80 34.85,6.59 34.91,6.38 34.96,6.18 35.08,6.00 35.20,5.83 35.37,5.70 35.54,5.57 35.75,5.50 35.95,5.44 36.16,5.44 36.37,5.44 36.57,5.51 36.77,5.58 36.94,5.70 37.11,5.83 37.23,6.01 37.35,6.19 37.40,6.39 37.46,6.60 37.45,6.81 37.44,7.02 37.36,7.22 37.28,7.41 37.14,7.58 37.00,7.74 36.82,7.85 36.64,7.96 36.43,8.00 36.22,8.05 36.01,8.02 35.80,8.00 35.61,7.91 35.41,7.82 35.26,7.67 35.11,7.52 35.01,7.34 34.91,7.15 34.88,6.94 34.84,6.73 34.88,6.52 34.91,6.31 35.01,6.12 35.11,5.94 35.27,5.79 35.42,5.64 35.62,5.56 35.81,5.47 36.02,5.44 36.23,5.42 36.44,5.47 36.65,5.52 36.83,5.63 37.01,5.74 37.15,5.90 37.28,6.06 37.36,6.26 37.44,6.46 37.44,6.46 37.44,6.46 35.93,9.54 34.42,12.62 32.21,13.26 30.00,13.89 27.42,13.54 24.84,13.19 22.59,11.64 20.35,10.10 18.75,7.58 17.15,5.06 16.80,2.48 16.44,-0.10 17.32,-2.38 18.19,-4.66 19.76,-6.07 21.33,-7.49 23.13,-8.12 24.94,-8.76 26.38,-8.22 27.82,-7.68 28.12,-7.90 28.41,-8.11 28.74,-8.25 29.08,-8.39 29.44,-8.45 29.79,-8.50 30.16,-8.47 30.52,-8.44 30.86,-8.32 31.20,-8.20 31.51,-8.00 31.81,-7.81 32.06,-7.54 32.31,-7.28 32.49,-6.96 32.67,-6.65 32.76,-6.30 32.86,-5.95 32.87,-5.59 32.88,-5.22 32.81,-4.87 32.73,-4.51 32.57,-4.19 32.42,-3.86 32.18,-3.58 31.95,-3.30 31.94,-3.12 31.93,-2.93 30.56,-1.76 29.18,-0.58 27.70,-0.13 26.22,0.31 24.08,0.63 21.93,0.96 19.82,0.67 17.71,0.38 16.11,0.24 14.50,0.11 13.47,-0.18 12.43,-0.48 11.08,-1.76 9.72,-3.04 9.77,-3.31 9.82,-3.57 9.93,-3.82 10.05,-4.06 10.22,-4.27 10.39,-4.49 10.60,-4.65 10.81,-4.82 11.06,-4.92 11.31,-5.03 11.58,-5.08 11.84,-5.13 12.11,-5.11 12.38,-5.09 12.64,-5.01 12.90,-4.92 13.13,-4.78 13.36,-4.64 13.55,-4.45 13.74,-4.25 13.87,-4.02 14.01,-3.79 14.09,-3.53 14.17,-3.27 14.18,-3.00 14.20,-2.73 14.73,-1.70 15.27,-0.67 15.13,0.78 14.98,2.25 14.45,4.48 13.92,6.71 12.57,8.68 11.23,10.65 9.15,11.45 7.07,12.25 4.82,11.48 2.57,10.70 1.15,8.63 -0.27,6.56 -0.72,4.44 -1.17,2.32 -1.48,0.62 -1.79,-1.08 -1.82,-2.28 -1.84,-3.48 -1.74,-3.79 -1.64,-4.10 -1.46,-4.38 -1.29,-4.65 -1.05,-4.88 -0.82,-5.11 -0.54,-5.27 -0.25,-5.44 0.05,-5.53 0.37,-5.63 0.69,-5.64 1.02,-5.65 1.34,-5.59 1.67,-5.53 1.96,-5.39 2.26,-5.25 2.51,-5.04 2.77,-4.83 2.97,-4.57 3.16,-4.31 3.29,-4.01 3.42,-3.71 3.48,-3.39 3.53,-3.06 3.51,-2.74 3.48,-2.41 2.77,-1.89 2.06,-1.38 1.82,-0.53 1.58,0.31 1.52,0.50 1.46,0.68 1.35,0.85 1.25,1.01 1.11,1.15 0.97,1.28 0.80,1.38 0.63,1.48 0.45,1.53 0.26,1.59 0.07,1.60 -0.12,1.60 -0.31,1.57 -0.50,1.53 -0.68,1.45 -0.85,1.36 -1.00,1.24 -1.15,1.12 -1.27,0.96 -1.39,0.81 -1.47,0.63 -1.54,0.45 -1.58,0.26 -1.61,0.07 -1.59,-0.12 -1.58,-0.31 -1.58,-0.31 L -1.58,-0.31 Z"></path></g><g transform="translate(737 531.390625) rotate(0 -6.5 9.5)" stroke="none"><path fill="#000000" d="M -1.53,-0.51 Q -1.53,-0.51 -1.27,-1.02 -1.02,-1.53 -2.30,-2.47 -3.57,-3.41 -5.28,-3.07 -6.98,-2.73 -8.55,-0.61 -10.12,1.51 -10.73,3.51 -11.34,5.52 -11.64,8.19 -11.94,10.87 -11.54,13.45 -11.14,16.04 -10.51,17.86 -9.87,19.69 -9.63,21.15 -9.39,22.61 -9.23,22.47 -9.07,22.34 -8.87,22.26 -8.67,22.18 -8.46,22.17 -8.25,22.16 -8.04,22.22 -7.84,22.28 -7.66,22.40 -7.49,22.52 -7.36,22.69 -7.23,22.86 -7.17,23.06 -7.10,23.26 -7.10,23.47 -7.10,23.68 -7.17,23.88 -7.24,24.09 -7.37,24.25 -7.50,24.42 -7.68,24.54 -7.85,24.66 -8.06,24.71 -8.26,24.77 -8.48,24.76 -8.69,24.75 -8.88,24.67 -9.08,24.59 -9.24,24.45 -9.40,24.31 -9.51,24.13 -9.62,23.94 -9.67,23.74 -9.71,23.53 -9.69,23.32 -9.66,23.11 -9.57,22.91 -9.48,22.72 -9.33,22.57 -9.19,22.41 -9.00,22.32 -8.81,22.22 -8.60,22.18 -8.39,22.15 -8.18,22.19 -7.97,22.22 -7.78,22.32 -7.60,22.42 -7.45,22.58 -7.31,22.73 -7.22,22.93 -7.13,23.12 -7.11,23.33 -7.09,23.54 -7.13,23.75 -7.18,23.96 -7.29,24.14 -7.40,24.32 -7.40,24.32 -7.40,24.32 -10.91,24.54 -14.42,24.76 -15.38,23.35 -16.33,21.95 -17.20,19.47 -18.06,17.00 -18.48,13.53 -18.90,10.05 -18.42,6.59 -17.95,3.13 -16.74,0.17 -15.53,-2.78 -13.56,-4.92 -11.59,-7.06 -9.32,-7.97 -7.06,-8.89 -5.35,-8.57 -3.65,-8.25 -2.14,-7.40 -0.64,-6.55 -0.01,-5.68 0.62,-4.81 1.39,-3.36 2.17,-1.91 1.85,-0.70 1.53,0.51 1.44,0.68 1.36,0.86 1.24,1.01 1.11,1.16 0.96,1.28 0.80,1.39 0.62,1.47 0.44,1.55 0.25,1.58 0.06,1.61 -0.12,1.59 -0.32,1.58 -0.50,1.52 -0.69,1.45 -0.85,1.35 -1.02,1.25 -1.15,1.11 -1.28,0.97 -1.38,0.80 -1.48,0.63 -1.53,0.44 -1.59,0.25 -1.60,0.06 -1.60,-0.12 -1.57,-0.31 -1.53,-0.51 -1.53,-0.51 L -1.53,-0.51 Z"></path></g><g transform="translate(731 543.390625) rotate(0 -7.5 -0.5)" stroke="none"><path fill="#000000" d="M -0.72,1.44 Q -0.72,1.44 -2.25,1.65 -3.79,1.85 -5.15,1.77 -6.51,1.69 -10.17,1.79 -13.84,1.88 -14.04,1.95 -14.24,2.01 -14.46,2.01 -14.67,2.00 -14.87,1.93 -15.07,1.86 -15.23,1.72 -15.40,1.59 -15.52,1.41 -15.63,1.24 -15.68,1.03 -15.74,0.82 -15.72,0.61 -15.71,0.40 -15.62,0.20 -15.54,0.01 -15.40,-0.14 -15.26,-0.30 -15.07,-0.40 -14.89,-0.51 -14.68,-0.55 -14.47,-0.59 -14.26,-0.57 -14.05,-0.54 -13.86,-0.44 -13.67,-0.35 -13.52,-0.20 -13.37,-0.05 -13.27,0.13 -13.18,0.32 -13.15,0.53 -13.12,0.74 -13.15,0.95 -13.19,1.16 -13.30,1.34 -13.40,1.53 -13.56,1.67 -13.72,1.81 -13.91,1.90 -14.10,1.98 -14.32,2.00 -14.53,2.02 -14.73,1.97 -14.94,1.92 -15.12,1.81 -15.30,1.69 -15.43,1.53 -15.57,1.36 -15.64,1.16 -15.72,0.96 -15.72,0.75 -15.73,0.54 -15.67,0.34 -15.61,0.13 -15.49,-0.03 -15.36,-0.20 -15.19,-0.33 -15.02,-0.45 -15.02,-0.45 -15.02,-0.45 -12.30,-2.59 -9.57,-4.73 -7.76,-5.06 -5.96,-5.39 -4.37,-5.24 -2.77,-5.10 -1.79,-4.63 -0.80,-4.15 -0.04,-2.80 0.72,-1.44 0.88,-1.33 1.04,-1.22 1.17,-1.08 1.31,-0.94 1.40,-0.77 1.49,-0.60 1.54,-0.41 1.59,-0.22 1.60,-0.03 1.60,0.16 1.56,0.35 1.52,0.54 1.43,0.71 1.34,0.89 1.21,1.03 1.09,1.18 0.93,1.30 0.77,1.41 0.59,1.48 0.41,1.55 0.22,1.58 0.03,1.61 -0.16,1.59 -0.35,1.57 -0.53,1.50 -0.72,1.44 -0.72,1.44 L -0.72,1.44 Z"></path></g><g transform="translate(746 542.390625) rotate(0 -1 2.5)" stroke="none"><path fill="#000000" d="M -1.29,-0.96 Q -1.29,-0.96 -0.75,-1.93 -0.22,-2.91 -1.81,-2.44 -3.39,-1.97 -4.25,-1.01 -5.12,-0.04 -5.29,1.04 -5.47,2.13 -5.22,3.23 -4.97,4.33 -3.79,5.04 -2.61,5.75 -1.05,6.03 0.51,6.31 1.69,5.14 2.88,3.97 3.09,2.87 3.31,1.77 3.26,0.66 3.21,-0.44 2.80,-0.47 2.39,-0.50 2.22,-0.38 2.04,-0.25 1.84,-0.19 1.64,-0.14 1.42,-0.14 1.21,-0.15 1.01,-0.23 0.81,-0.30 0.65,-0.44 0.49,-0.57 0.37,-0.75 0.26,-0.93 0.21,-1.14 0.16,-1.35 0.18,-1.56 0.20,-1.77 0.29,-1.97 0.38,-2.16 0.52,-2.32 0.67,-2.47 0.85,-2.57 1.04,-2.68 1.25,-2.71 1.46,-2.75 1.67,-2.72 1.88,-2.69 2.07,-2.59 2.25,-2.50 2.40,-2.34 2.55,-2.19 2.64,-2.00 2.74,-1.81 2.76,-1.60 2.79,-1.39 2.74,-1.18 2.70,-0.97 2.60,-0.79 2.49,-0.60 2.33,-0.46 2.17,-0.32 1.97,-0.24 1.78,-0.16 1.56,-0.15 1.35,-0.13 1.15,-0.18 0.94,-0.24 0.76,-0.36 0.59,-0.47 0.45,-0.64 0.32,-0.81 0.25,-1.01 0.18,-1.21 0.18,-1.42 0.18,-1.63 0.24,-1.83 0.31,-2.04 0.43,-2.21 0.56,-2.38 0.56,-2.38 0.56,-2.38 3.95,-3.14 7.35,-3.89 8.21,-2.38 9.08,-0.87 9.23,1.18 9.38,3.24 8.71,5.54 8.05,7.83 6.23,9.55 4.41,11.28 1.82,11.62 -0.77,11.96 -3.44,11.08 -6.11,10.20 -8.14,8.18 -10.16,6.15 -10.68,3.52 -11.20,0.90 -10.49,-1.37 -9.77,-3.64 -8.03,-5.31 -6.29,-6.98 -4.57,-7.29 -2.85,-7.60 -1.29,-7.32 0.26,-7.04 1.64,-6.14 3.02,-5.25 3.34,-3.47 3.67,-1.68 2.48,-0.36 1.29,0.96 1.15,1.10 1.02,1.24 0.85,1.35 0.69,1.45 0.50,1.51 0.32,1.58 0.13,1.59 -0.06,1.61 -0.25,1.58 -0.44,1.55 -0.62,1.47 -0.80,1.39 -0.96,1.28 -1.11,1.16 -1.24,1.01 -1.36,0.86 -1.44,0.68 -1.53,0.51 -1.56,0.32 -1.60,0.13 -1.60,-0.06 -1.59,-0.25 -1.53,-0.44 -1.48,-0.63 -1.38,-0.79 -1.29,-0.96 -1.29,-0.96 L -1.29,-0.96 Z"></path></g><g transform="translate(761 538.390625) rotate(0 6 4.5)" stroke="none"><path fill="#000000" d="M -1.58,0.31 Q -1.58,0.31 -1.49,-0.33 -1.40,-0.98 -0.16,-1.68 1.07,-2.39 1.18,-0.07 1.29,2.24 1.63,4.31 1.97,6.38 2.70,7.86 3.43,9.33 3.87,10.32 4.30,11.31 4.40,11.65 4.50,12.00 4.51,12.36 4.52,12.73 4.45,13.08 4.37,13.43 4.21,13.76 4.06,14.08 3.82,14.36 3.59,14.64 3.30,14.86 3.01,15.07 2.68,15.21 2.34,15.35 1.99,15.40 1.63,15.46 1.27,15.43 0.91,15.39 0.57,15.28 0.22,15.16 -0.07,14.96 -0.37,14.77 -0.62,14.50 -0.87,14.24 -1.05,13.93 -1.23,13.61 -1.25,12.14 -1.27,10.68 -1.31,9.47 -1.34,8.27 -1.20,6.45 -1.05,4.64 -0.27,2.31 0.49,-0.02 1.97,-1.82 3.45,-3.62 5.27,-4.44 7.08,-5.27 10.58,-4.55 14.08,-3.82 14.13,-3.62 14.17,-3.41 14.14,-3.20 14.12,-2.99 14.03,-2.79 13.94,-2.60 13.79,-2.45 13.64,-2.30 13.45,-2.20 13.26,-2.10 13.05,-2.07 12.84,-2.04 12.63,-2.08 12.42,-2.11 12.24,-2.22 12.05,-2.32 11.91,-2.47 11.76,-2.63 11.67,-2.82 11.59,-3.02 11.57,-3.23 11.55,-3.44 11.60,-3.65 11.64,-3.85 11.76,-4.03 11.87,-4.22 12.03,-4.35 12.19,-4.49 12.39,-4.56 12.59,-4.64 12.80,-4.65 13.02,-4.66 13.22,-4.60 13.42,-4.54 13.60,-4.42 13.77,-4.29 13.90,-4.12 14.03,-3.95 14.09,-3.75 14.16,-3.55 14.15,-3.34 14.15,-3.12 14.08,-2.92 14.01,-2.72 13.88,-2.56 13.75,-2.39 13.57,-2.27 13.39,-2.15 13.19,-2.10 12.98,-2.05 12.77,-2.06 12.56,-2.07 12.36,-2.15 12.17,-2.24 12.01,-2.38 11.85,-2.52 11.74,-2.70 11.63,-2.88 11.63,-2.88 11.63,-2.88 9.44,-1.56 7.26,-0.24 6.51,0.74 5.77,1.73 5.37,3.25 4.98,4.78 5.08,6.64 5.18,8.50 4.74,9.90 4.30,11.31 4.40,11.65 4.50,12.00 4.51,12.36 4.52,12.73 4.45,13.08 4.37,13.43 4.21,13.76 4.06,14.08 3.82,14.36 3.59,14.64 3.30,14.86 3.01,15.07 2.68,15.21 2.34,15.35 1.99,15.40 1.63,15.46 1.27,15.43 0.91,15.39 0.57,15.28 0.22,15.16 -0.07,14.96 -0.37,14.77 -0.62,14.50 -0.87,14.24 -1.05,13.93 -1.23,13.61 -1.42,12.52 -1.61,11.43 -2.35,9.37 -3.09,7.31 -3.51,5.12 -3.92,2.92 -4.16,0.93 -4.40,-1.05 -4.13,-2.27 -3.86,-3.50 -1.80,-4.13 0.25,-4.76 0.91,-2.53 1.58,-0.31 1.59,-0.12 1.61,0.07 1.58,0.26 1.54,0.45 1.47,0.63 1.39,0.81 1.27,0.96 1.15,1.12 1.00,1.24 0.85,1.36 0.68,1.45 0.50,1.53 0.31,1.57 0.12,1.60 -0.07,1.60 -0.26,1.59 -0.45,1.53 -0.63,1.48 -0.80,1.38 -0.97,1.28 -1.11,1.15 -1.25,1.01 -1.35,0.85 -1.46,0.68 -1.52,0.50 -1.58,0.31 -1.58,0.31 L -1.58,0.31 Z"></path></g><g transform="translate(782 529.390625) rotate(0 4 10)" stroke="none"><path fill="#000000" d="M -1.14,-1.14 Q -1.14,-1.14 -0.61,-2.51 -0.08,-3.89 0.02,-4.04 0.13,-4.20 0.45,-4.44 0.76,-4.68 1.12,-4.85 1.48,-5.01 1.87,-5.08 2.26,-5.15 2.65,-5.13 3.04,-5.10 3.42,-4.99 3.80,-4.87 4.14,-4.66 4.48,-4.46 4.75,-4.18 5.03,-3.90 5.24,-3.56 5.44,-3.22 5.56,-2.85 5.68,-2.47 5.70,-2.07 5.73,-1.68 5.65,-1.29 5.58,-0.90 5.42,-0.54 5.26,-0.18 5.02,0.12 4.77,0.43 5.65,2.11 6.52,3.80 7.06,6.39 7.61,8.98 8.06,12.00 8.51,15.02 8.60,17.89 8.69,20.77 8.79,20.96 8.90,21.14 8.94,21.35 8.99,21.55 8.96,21.77 8.94,21.98 8.85,22.17 8.75,22.36 8.61,22.51 8.46,22.67 8.27,22.76 8.08,22.86 7.87,22.89 7.66,22.92 7.45,22.89 7.24,22.85 7.05,22.75 6.87,22.65 6.72,22.49 6.58,22.33 6.49,22.14 6.41,21.95 6.39,21.73 6.37,21.52 6.41,21.32 6.46,21.11 6.57,20.93 6.69,20.75 6.85,20.61 7.01,20.48 7.21,20.40 7.41,20.32 7.62,20.32 7.83,20.31 8.04,20.37 8.24,20.42 8.42,20.55 8.59,20.67 8.72,20.84 8.84,21.01 8.91,21.21 8.97,21.41 8.97,21.63 8.97,21.84 8.90,22.04 8.83,22.24 8.70,22.41 8.57,22.57 8.39,22.69 8.21,22.81 8.01,22.86 7.80,22.92 7.59,22.90 7.38,22.89 7.18,22.81 6.98,22.73 6.82,22.59 6.66,22.45 6.66,22.45 6.66,22.45 4.27,19.34 1.87,16.24 1.24,13.34 0.60,10.45 -0.05,7.25 -0.72,4.05 -0.72,2.23 -0.72,0.42 -0.29,-1.88 0.13,-4.20 0.45,-4.44 0.76,-4.68 1.12,-4.85 1.48,-5.01 1.87,-5.08 2.25,-5.15 2.65,-5.13 3.04,-5.10 3.42,-4.99 3.80,-4.87 4.14,-4.66 4.47,-4.46 4.75,-4.18 5.03,-3.90 5.24,-3.56 5.44,-3.22 5.56,-2.85 5.68,-2.47 5.70,-2.07 5.73,-1.68 5.65,-1.29 5.58,-0.90 5.42,-0.54 5.26,-0.18 5.02,0.12 4.77,0.43 4.15,0.43 3.53,0.44 2.33,0.79 1.14,1.14 0.98,1.26 0.83,1.38 0.65,1.46 0.48,1.54 0.28,1.57 0.09,1.61 -0.09,1.59 -0.29,1.58 -0.47,1.52 -0.66,1.47 -0.82,1.37 -0.99,1.27 -1.13,1.13 -1.27,0.99 -1.37,0.82 -1.47,0.66 -1.52,0.47 -1.58,0.29 -1.59,0.09 -1.61,-0.09 -1.57,-0.28 -1.54,-0.48 -1.46,-0.65 -1.38,-0.83 -1.26,-0.98 -1.14,-1.14 -1.14,-1.14 L -1.14,-1.14 Z"></path></g><g transform="translate(799 541.390625) rotate(0 -10 -0.5)" stroke="none"><path fill="#000000" d="M -0.26,1.59 Q -0.26,1.59 -2.08,1.90 -3.89,2.21 -6.03,2.40 -8.17,2.58 -10.24,2.85 -12.32,3.11 -14.22,3.19 -16.13,3.27 -18.11,2.77 -20.09,2.27 -20.30,2.24 -20.51,2.22 -20.71,2.13 -20.90,2.04 -21.05,1.89 -21.20,1.74 -21.30,1.55 -21.40,1.37 -21.43,1.16 -21.47,0.95 -21.43,0.74 -21.40,0.53 -21.30,0.34 -21.20,0.15 -21.04,0.01 -20.88,-0.13 -20.69,-0.22 -20.50,-0.30 -20.29,-0.32 -20.08,-0.35 -19.87,-0.30 -19.66,-0.25 -19.48,-0.14 -19.30,-0.03 -19.16,0.12 -19.02,0.28 -18.95,0.48 -18.87,0.68 -18.86,0.89 -18.85,1.10 -18.91,1.31 -18.97,1.51 -19.09,1.69 -19.21,1.86 -19.38,1.99 -19.55,2.12 -19.75,2.19 -19.95,2.25 -20.16,2.25 -20.37,2.25 -20.58,2.18 -20.78,2.11 -20.95,1.98 -21.11,1.85 -21.23,1.68 -21.35,1.50 -21.41,1.29 -21.46,1.09 -21.45,0.88 -21.44,0.66 -21.36,0.47 -21.28,0.27 -21.14,0.11 -21.00,-0.04 -20.82,-0.15 -20.63,-0.26 -20.43,-0.30 -20.22,-0.35 -20.22,-0.35 -20.22,-0.35 -18.39,-1.03 -16.55,-1.72 -14.87,-1.95 -13.18,-2.17 -10.87,-2.62 -8.55,-3.07 -5.78,-3.21 -3.00,-3.36 -1.36,-2.47 0.26,-1.59 0.45,-1.53 0.63,-1.48 0.80,-1.38 0.97,-1.28 1.11,-1.15 1.25,-1.01 1.35,-0.85 1.46,-0.68 1.52,-0.50 1.58,-0.31 1.59,-0.12 1.61,0.07 1.58,0.26 1.54,0.45 1.47,0.63 1.39,0.81 1.27,0.96 1.15,1.12 1.00,1.24 0.85,1.36 0.68,1.45 0.50,1.53 0.31,1.57 0.12,1.60 -0.07,1.60 -0.26,1.59 -0.26,1.59 L -0.26,1.59 Z"></path></g><g transform="translate(825 535.390625) rotate(0 6 6)" stroke="none"><path fill="#d9480f" d="M 1.53,0.51 Q 1.53,0.51 1.99,2.48 2.46,4.45 2.84,5.74 3.21,7.03 3.99,7.89 4.77,8.76 5.59,7.93 6.40,7.11 7.03,5.60 7.66,4.10 8.54,2.57 9.41,1.05 11.90,1.38 14.38,1.71 14.31,1.91 14.24,2.11 14.11,2.28 13.98,2.45 13.80,2.56 13.62,2.68 13.42,2.74 13.21,2.79 13.00,2.78 12.79,2.77 12.59,2.69 12.40,2.61 12.24,2.47 12.07,2.33 11.97,2.14 11.86,1.96 11.81,1.75 11.77,1.55 11.80,1.34 11.82,1.12 11.91,0.93 12.00,0.74 12.15,0.59 12.30,0.43 12.49,0.34 12.67,0.24 12.88,0.21 13.09,0.17 13.30,0.21 13.51,0.25 13.70,0.35 13.89,0.45 14.03,0.60 14.18,0.76 14.26,0.95 14.35,1.15 14.37,1.36 14.39,1.57 14.35,1.78 14.30,1.98 14.19,2.16 14.08,2.34 13.91,2.48 13.75,2.62 13.55,2.69 13.35,2.77 13.14,2.78 12.93,2.79 12.73,2.73 12.52,2.67 12.35,2.55 12.17,2.43 12.04,2.26 11.92,2.09 11.85,1.89 11.78,1.69 11.79,1.47 11.79,1.26 11.79,1.26 11.79,1.26 13.97,2.71 16.16,4.17 15.40,6.18 14.64,8.18 12.77,10.94 10.90,13.69 8.15,14.87 5.39,16.04 2.39,15.00 -0.59,13.95 -2.39,11.25 -4.19,8.55 -4.48,5.49 -4.76,2.44 -3.14,0.96 -1.53,-0.51 -1.44,-0.68 -1.36,-0.86 -1.24,-1.01 -1.11,-1.16 -0.96,-1.28 -0.80,-1.39 -0.62,-1.47 -0.44,-1.55 -0.25,-1.58 -0.06,-1.61 0.12,-1.59 0.32,-1.58 0.50,-1.52 0.69,-1.45 0.85,-1.35 1.02,-1.25 1.15,-1.11 1.28,-0.97 1.38,-0.80 1.48,-0.63 1.53,-0.44 1.59,-0.25 1.60,-0.06 1.60,0.12 1.57,0.31 1.53,0.51 1.53,0.51 L 1.53,0.51 Z"></path></g><g transform="translate(856 542.390625) rotate(0 -1.5 -1)" stroke="none"><path fill="#d9480f" d="M -1.44,-0.72 Q -1.44,-0.72 -1.12,-1.98 -0.81,-3.25 -0.76,-4.31 -0.71,-5.38 -2.40,-5.55 -4.10,-5.73 -5.40,-4.32 -6.70,-2.90 -8.14,-0.90 -9.57,1.09 -8.78,2.33 -7.99,3.57 -6.69,3.12 -5.38,2.68 -4.40,1.83 -3.42,0.98 -2.23,-0.77 -1.04,-2.53 1.59,-3.11 4.22,-3.69 5.82,-2.90 7.41,-2.11 8.38,-1.14 9.34,-0.16 10.10,1.04 10.85,2.24 11.49,3.86 12.13,5.49 12.28,5.63 12.43,5.78 12.53,5.97 12.63,6.16 12.66,6.37 12.69,6.58 12.65,6.79 12.61,7.00 12.51,7.19 12.41,7.37 12.25,7.52 12.10,7.66 11.90,7.75 11.71,7.83 11.50,7.85 11.28,7.87 11.08,7.82 10.87,7.77 10.69,7.66 10.51,7.55 10.37,7.39 10.24,7.22 10.16,7.02 10.09,6.82 10.08,6.61 10.07,6.40 10.13,6.20 10.19,5.99 10.31,5.82 10.44,5.64 10.61,5.52 10.78,5.39 10.98,5.33 11.18,5.26 11.39,5.27 11.61,5.27 11.81,5.34 12.01,5.41 12.17,5.54 12.34,5.67 12.46,5.85 12.58,6.03 12.63,6.23 12.68,6.44 12.67,6.65 12.65,6.86 12.57,7.06 12.49,7.26 12.35,7.41 12.21,7.57 12.03,7.68 11.84,7.79 11.63,7.83 11.43,7.87 11.22,7.85 11.00,7.82 10.81,7.73 10.62,7.64 10.62,7.64 10.62,7.64 8.45,7.29 6.27,6.94 5.09,6.25 3.91,5.56 2.95,4.14 2.00,2.71 2.76,3.56 3.53,4.41 1.85,6.02 0.18,7.63 -2.37,8.55 -4.93,9.48 -7.90,9.15 -10.87,8.82 -13.05,6.81 -15.23,4.80 -15.20,1.23 -15.17,-2.33 -13.05,-5.23 -10.94,-8.13 -7.94,-10.13 -4.95,-12.13 -2.33,-11.87 0.28,-11.61 1.97,-10.01 3.66,-8.42 3.82,-6.52 3.99,-4.62 3.55,-2.98 3.11,-1.34 2.27,-0.31 1.44,0.72 1.33,0.88 1.22,1.04 1.08,1.17 0.94,1.31 0.77,1.40 0.60,1.49 0.41,1.54 0.22,1.59 0.03,1.60 -0.16,1.60 -0.35,1.56 -0.54,1.52 -0.71,1.43 -0.89,1.34 -1.03,1.21 -1.18,1.09 -1.30,0.93 -1.41,0.77 -1.48,0.59 -1.55,0.41 -1.58,0.22 -1.61,0.03 -1.59,-0.16 -1.57,-0.35 -1.50,-0.53 -1.44,-0.72 -1.44,-0.72 L -1.44,-0.72 Z"></path></g><g transform="translate(872 538.390625) rotate(0 10.5 4)" stroke="none"><path fill="#d9480f" d="M -1.61,0 Q -1.61,0 -1.77,-1.43 -1.92,-2.87 -2.81,-4.44 -3.69,-6.01 -3.64,-6.38 -3.60,-6.75 -3.47,-7.10 -3.33,-7.46 -3.12,-7.77 -2.91,-8.07 -2.62,-8.32 -2.34,-8.57 -2.01,-8.75 -1.68,-8.92 -1.31,-9.01 -0.95,-9.10 -0.57,-9.10 -0.19,-9.10 0.16,-9.01 0.53,-8.92 0.86,-8.75 1.19,-8.57 1.47,-8.32 1.76,-8.07 1.97,-7.76 2.18,-7.46 2.32,-7.10 2.45,-6.75 2.49,-6.38 2.54,-6.01 2.52,-4.64 2.49,-3.27 2.51,-1.77 2.53,-0.27 2.74,1.25 2.95,2.79 3.14,4.08 3.33,5.36 4.64,5.40 5.95,5.44 6.51,4.32 7.06,3.20 7.87,1.39 8.68,-0.42 9.00,-2.07 9.33,-3.73 9.25,-4.39 9.16,-5.06 9.34,-5.51 9.51,-5.97 9.79,-6.37 10.07,-6.77 10.43,-7.09 10.80,-7.41 11.23,-7.64 11.66,-7.86 12.14,-7.98 12.61,-8.09 13.10,-8.09 13.58,-8.09 14.06,-7.97 14.53,-7.86 14.96,-7.63 15.39,-7.40 15.75,-7.08 16.12,-6.75 16.39,-6.35 16.67,-5.95 16.84,-5.49 17.01,-5.04 17.07,-4.55 17.13,-4.07 17.07,-3.59 17.01,-3.10 16.88,-0.62 16.75,1.85 17.41,3.92 18.07,5.99 19.25,7.82 20.43,9.66 20.54,10.67 20.65,11.68 20.86,11.72 21.07,11.75 21.26,11.85 21.44,11.95 21.59,12.10 21.74,12.25 21.83,12.45 21.92,12.64 21.94,12.85 21.97,13.06 21.92,13.27 21.88,13.48 21.77,13.66 21.66,13.84 21.50,13.98 21.34,14.12 21.14,14.20 20.94,14.28 20.73,14.29 20.52,14.30 20.31,14.25 20.11,14.19 19.93,14.07 19.76,13.95 19.63,13.78 19.50,13.62 19.43,13.42 19.36,13.21 19.36,13.00 19.36,12.79 19.42,12.59 19.49,12.39 19.62,12.22 19.75,12.05 19.92,11.93 20.10,11.81 20.30,11.75 20.51,11.69 20.72,11.70 20.93,11.71 21.13,11.79 21.33,11.87 21.49,12.01 21.65,12.14 21.76,12.32 21.87,12.51 21.92,12.71 21.97,12.92 21.94,13.13 21.92,13.34 21.83,13.54 21.74,13.73 21.60,13.88 21.45,14.04 21.27,14.14 21.08,14.24 20.87,14.27 20.66,14.31 20.66,14.31 20.66,14.31 17.87,13.98 15.08,13.64 13.23,10.95 11.38,8.26 10.33,5.09 9.27,1.93 9.14,-0.24 9.01,-2.42 9.09,-3.74 9.16,-5.06 9.34,-5.51 9.51,-5.97 9.79,-6.37 10.07,-6.77 10.43,-7.09 10.80,-7.41 11.23,-7.64 11.66,-7.86 12.14,-7.98 12.61,-8.09 13.10,-8.09 13.58,-8.09 14.06,-7.97 14.53,-7.86 14.96,-7.63 15.39,-7.40 15.75,-7.08 16.12,-6.75 16.39,-6.35 16.67,-5.95 16.84,-5.49 17.01,-5.04 17.07,-4.55 17.13,-4.07 17.07,-3.59 17.01,-3.10 17.05,-2.53 17.09,-1.96 16.35,0.64 15.61,3.25 13.92,6.07 12.23,8.88 9.60,10.52 6.98,12.17 4.13,11.77 1.29,11.37 -0.61,9.59 -2.52,7.80 -3.15,5.81 -3.77,3.83 -4.12,1.73 -4.46,-0.36 -4.40,-1.99 -4.34,-3.63 -4.01,-4.82 -3.69,-6.01 -3.64,-6.38 -3.60,-6.75 -3.47,-7.10 -3.33,-7.46 -3.12,-7.76 -2.91,-8.07 -2.62,-8.32 -2.34,-8.57 -2.01,-8.75 -1.68,-8.92 -1.31,-9.01 -0.95,-9.10 -0.57,-9.10 -0.19,-9.10 0.16,-9.01 0.53,-8.92 0.86,-8.75 1.19,-8.57 1.47,-8.32 1.76,-8.07 1.97,-7.77 2.18,-7.46 2.32,-7.10 2.45,-6.75 2.49,-6.38 2.54,-6.01 2.23,-4.44 1.92,-2.87 1.77,-1.43 1.61,0 1.59,0.19 1.56,0.38 1.49,0.56 1.42,0.75 1.31,0.91 1.20,1.07 1.06,1.19 0.91,1.32 0.74,1.41 0.57,1.50 0.38,1.55 0.19,1.60 -0.00,1.60 -0.19,1.60 -0.38,1.55 -0.57,1.50 -0.74,1.41 -0.91,1.32 -1.06,1.19 -1.20,1.07 -1.31,0.91 -1.42,0.74 -1.49,0.56 -1.56,0.38 -1.59,0.19 -1.61,-0.00 -1.61,-0.00 L -1.61,0 Z"></path></g></svg>